<?xml version="1.0" standalone="no"?>
<!DOCTYPE svg PUBLIC "-//W3C//DTD SVG 20010904//EN"
 "http://www.w3.org/TR/2001/REC-SVG-20010904/DTD/svg10.dtd">
<svg version="1.0" xmlns="http://www.w3.org/2000/svg"
 width="400.000000pt" height="400.000000pt" viewBox="0 0 400.000000 400.000000"
 preserveAspectRatio="xMidYMid meet">
<metadata>
Created by potrace 1.15, written by Peter Selinger 2001-2017
</metadata>
<g transform="translate(0.000000,400.000000) scale(0.100000,-0.100000)"
fill="#000000" stroke="none">
<path d="M1287 3378 c-11 -18 -12 -68 -8 -243 l6 -220 99 -3 99 -3 -7 -46 c-3
-25 -6 -61 -6 -79 l0 -34 -150 0 c-143 0 -150 -1 -150 -20 0 -20 -7 -20 -500
-20 l-500 0 0 -95 c0 -95 0 -95 25 -95 l25 0 0 -860 0 -860 -25 0 c-25 0 -25
0 -25 -95 l0 -95 1773 2 c974 1 1727 5 1672 8 -55 4 -625 8 -1267 9 l-1168 1
0 34 0 34 834 0 835 -1 4 -31 c4 -29 4 -28 5 7 2 36 1 37 -33 37 -33 0 -35 2
-35 33 l0 34 152 6 c83 4 317 7 519 7 l368 0 4 -67 3 -68 2 71 2 71 -552 8
c-304 4 -554 8 -555 9 -2 1 0 118 4 259 5 222 8 257 22 260 13 4 13 5 -1 6
-12 1 -18 9 -18 26 0 24 -2 25 -66 25 -62 0 -65 -1 -62 -22 3 -26 32 -24 -318
-20 l-186 2 16 25 c9 13 16 30 16 37 -1 7 -7 1 -16 -14 -27 -51 -113 -75 -167
-47 -80 41 -74 164 9 204 40 19 42 19 40 -1 0 -9 5 -19 13 -22 10 -3 12 1 8
17 -4 19 -2 21 16 16 37 -11 71 -40 87 -73 l15 -32 303 2 302 3 1 -25 c0 -14
4 -34 9 -45 6 -15 9 -6 9 33 l1 52 -309 0 c-196 0 -312 4 -316 10 -4 7 78 10
238 10 134 0 278 3 320 6 l76 7 4 -79 3 -79 2 81 2 81 -332 5 c-289 5 -332 8
-340 22 -33 59 -173 59 -206 0 -8 -15 -47 -17 -341 -22 l-331 -5 0 -93 c0 -77
3 -94 15 -94 8 0 15 -9 15 -20 0 -11 7 -20 15 -20 13 0 15 -33 15 -240 l0
-240 -407 0 c-225 0 -465 -3 -536 -7 l-127 -6 0 861 0 862 1775 -1 1775 -2 2
-831 c1 -676 3 -767 9 -486 3 190 7 568 8 840 l2 495 -1808 2 -1808 3 -3 75
-3 75 1674 0 c921 0 1742 3 1825 7 l151 6 4 -69 3 -69 2 73 2 72 -490 0 c-483
0 -490 0 -490 20 0 19 -7 20 -156 20 l-156 0 6 31 c3 17 6 53 6 80 l0 48 43 4
42 4 -42 1 c-36 2 -43 5 -43 22 0 16 -7 20 -31 20 -22 0 -32 -5 -36 -20 -5
-20 -14 -20 -473 -20 -459 0 -468 0 -473 20 -7 28 -57 28 -64 0 -5 -19 -12
-21 -97 -18 l-91 3 0 225 0 225 720 0 720 0 5 -165 5 -165 5 155 c4 115 2 161
-8 178 l-12 22 -715 0 -715 0 -13 -22z m1203 -498 c0 -14 -3 -48 -6 -75 l-6
-51 -470 1 -470 0 6 50 c3 28 6 61 6 75 l0 25 470 0 470 0 0 -25z m360 -157
c0 -11 -161 -13 -835 -13 -661 0 -835 3 -835 13 0 9 174 12 835 12 674 1 835
-2 835 -12z m-1251 -1223 c194 0 292 -3 285 -10 -6 -6 -131 -11 -314 -12
l-305 -3 3 -67 c3 -45 0 -68 -7 -68 -12 0 -16 152 -4 164 4 4 17 5 28 2 11 -3
153 -6 314 -6z m286 -70 c3 -16 15 -40 25 -53 l19 -24 -121 -6 c-67 -4 -181
-7 -255 -7 l-133 0 0 25 c0 24 -3 25 -60 25 -57 0 -60 -1 -60 -25 0 -14 -4
-25 -10 -25 -6 0 -10 27 -10 60 l0 60 299 0 299 0 7 -30z m-502 -60 c16 0 17
-19 18 -257 0 -142 4 -267 9 -278 5 -12 9 75 9 217 l1 237 601 -1 602 0 -7
-106 c-3 -58 -6 -165 -6 -239 l0 -133 -29 0 -28 0 -7 222 c-4 123 -8 224 -10
225 -1 1 -109 6 -239 9 l-237 7 0 -231 0 -232 -38 0 -39 0 -6 128 c-4 70 -7
168 -7 219 0 50 -4 94 -9 97 -4 3 -112 8 -240 12 l-231 7 0 -230 0 -230 -61
-7 c-119 -12 -105 -46 -113 274 -4 154 -4 285 0 291 3 6 16 8 28 5 11 -3 29
-6 39 -6z m1323 -3 c1 -1 4 -129 7 -284 l6 -283 -45 0 -44 0 0 291 0 291 38
-7 c20 -4 38 -8 38 -8z m-86 -50 c0 -9 -139 -12 -600 -13 -496 -1 -600 1 -600
12 0 11 105 13 600 13 461 0 600 -3 600 -12z m-663 -219 c-4 -83 -7 -182 -7
-220 l0 -68 -225 0 -225 0 0 174 c0 95 3 194 6 220 l7 46 225 0 225 0 -6 -152z
m573 39 c0 -63 -3 -162 -7 -220 l-6 -107 -217 0 c-217 0 -218 0 -224 23 -8 29
-8 178 1 310 l6 107 224 0 223 0 0 -113z m-1452 -357 l162 0 0 -29 c0 -27 -3
-30 -37 -33 -37 -3 -38 -4 -41 -44 -2 -33 -8 -43 -25 -48 -30 -8 -637 -8 -814
1 l-143 6 0 80 0 80 368 -6 c202 -4 440 -7 530 -7z m1702 -36 l0 -37 -37 7
c-21 3 -365 6 -765 6 l-728 0 0 30 0 30 765 0 765 0 0 -36z"/>
<path d="M1540 1015 l0 -195 196 0 197 0 -7 188 c-4 103 -10 189 -12 191 -3 3
-45 7 -94 9 -89 4 -90 4 -91 -19 -1 -15 -3 -18 -6 -8 -5 22 -33 29 -115 29
l-68 0 0 -195z m160 0 l0 -165 -65 0 -65 0 0 165 0 165 65 0 65 0 0 -165z
m196 134 c-3 -17 -6 -92 -6 -165 l0 -134 -64 0 -65 0 5 158 c2 86 4 160 4 165
0 4 30 7 66 7 l67 0 -7 -31z"/>
<path d="M2110 1015 l0 -195 197 0 196 0 -6 186 c-3 102 -8 189 -12 192 -3 3
-45 8 -94 10 -108 5 -101 18 -108 -205 l-5 -163 -79 0 -79 0 0 53 c0 30 3 109
7 175 l6 122 59 0 c37 0 57 4 53 10 -3 6 -35 10 -71 10 l-64 0 0 -195z m355 0
l0 -165 -69 0 -69 0 7 38 c3 20 6 94 6 165 l0 127 63 0 63 0 -1 -165z"/>
<path d="M1655 3266 c-37 -16 -55 -52 -55 -111 0 -57 17 -93 51 -111 36 -18
49 -18 99 2 42 17 50 33 25 54 -12 10 -21 10 -45 0 -42 -17 -60 0 -61 59 l-1
46 -11 -33 c-21 -65 18 -116 73 -95 16 6 32 8 35 3 8 -13 -20 -31 -58 -37 -29
-4 -40 -1 -61 20 -22 22 -26 35 -26 82 0 46 4 60 25 80 43 44 125 25 125 -29
0 -14 -5 -17 -21 -13 -13 3 -19 1 -16 -6 5 -17 38 -15 50 4 18 28 -1 69 -38
85 -41 17 -51 17 -90 0z"/>
<path d="M1453 3259 c-12 -6 -27 -24 -33 -40 -16 -38 6 -74 60 -95 44 -18 49
-27 23 -44 -16 -10 -16 -10 2 -8 12 2 21 12 23 25 3 17 -6 27 -37 43 -53 26
-68 53 -47 85 19 29 48 39 93 30 49 -9 37 -30 -18 -30 -37 0 -44 -3 -47 -20
-2 -16 8 -26 42 -43 54 -25 69 -61 41 -92 -20 -22 -92 -28 -126 -10 -10 6 -19
8 -19 6 0 -13 63 -36 98 -36 50 0 82 29 82 74 0 31 -33 76 -56 76 -6 0 -19 7
-30 16 -18 14 -16 15 23 11 36 -4 43 -2 49 15 3 11 1 25 -4 30 -15 15 -94 19
-119 7z"/>
<path d="M1817 3263 c-4 -3 -7 -57 -7 -120 l0 -113 35 0 35 0 0 49 c0 43 3 50
23 54 16 3 13 5 -10 6 -33 1 -33 0 -33 -44 0 -31 -4 -45 -14 -45 -9 0 -15 25
-20 96 -7 99 -4 114 20 114 10 0 14 -12 14 -44 0 -43 1 -44 38 -49 49 -6 52
-3 52 44 0 28 4 39 15 39 12 0 15 -18 15 -100 0 -92 -2 -100 -19 -100 -11 0
-22 8 -24 18 -4 13 -5 12 -6 -5 -1 -16 6 -24 23 -29 14 -3 30 -3 35 1 7 4 11
51 11 121 l0 114 -35 0 c-34 0 -35 -1 -35 -40 0 -22 -4 -40 -9 -40 -5 0 -16
-3 -25 -6 -12 -5 -16 1 -16 24 0 17 -3 37 -6 46 -6 16 -45 22 -57 9z"/>
<path d="M2470 3156 c0 -128 -1 -126 75 -126 74 0 103 52 32 58 l-37 3 0 78
c0 82 -9 101 -47 101 -23 0 -23 -2 -23 -114z"/>
<path d="M1365 2460 c-48 -5 -34 -7 68 -8 77 -1 127 -6 127 -12 0 -6 -48 -10
-125 -10 l-125 0 0 -57 c0 -32 -3 -102 -7 -155 l-6 -98 124 3 124 2 5 45 5 45
8 -34 c4 -18 7 -44 7 -57 l0 -24 -140 0 -140 0 -1 168 c-2 162 -2 164 -11 77
-4 -49 -7 -128 -6 -175 l3 -84 151 -1 152 0 6 59 c3 32 6 119 6 192 l0 134
-82 -2 c-46 -1 -110 -4 -143 -8z m48 -187 c4 -75 5 -138 3 -140 -1 -2 -24 0
-49 3 l-47 7 0 133 0 134 43 0 44 0 6 -137z"/>
<path d="M1755 2460 c-48 -5 -34 -7 68 -8 l127 -2 0 -175 0 -175 -135 0 -135
0 0 135 c0 83 -4 135 -10 135 -6 0 -10 -54 -10 -143 l0 -143 153 3 152 3 7
163 c4 89 5 174 2 190 -6 27 -6 27 -82 25 -42 -1 -104 -4 -137 -8z"/>
<path d="M2140 2460 c-42 -5 -25 -7 73 -8 l127 -2 0 -175 0 -175 -135 0 -135
0 -1 103 c-1 56 -5 134 -9 172 -5 54 -7 28 -8 -110 l-2 -180 152 3 153 2 3
190 2 190 -82 -2 c-46 -1 -108 -4 -138 -8z"/>
<path d="M2530 2460 c-43 -5 -28 -7 68 -8 73 -1 122 -6 122 -12 0 -6 -48 -10
-125 -10 l-125 0 -1 -122 c-1 -93 -3 -113 -10 -83 -4 22 -9 78 -10 125 -2 80
-2 78 -11 -50 -5 -74 -7 -153 -3 -175 l5 -40 148 0 c86 0 150 4 154 10 4 6 8
92 8 193 l0 182 -82 -2 c-46 -1 -108 -4 -138 -8z m45 -186 c4 -74 5 -137 2
-140 -2 -3 -22 -2 -44 2 l-40 6 -7 82 c-3 44 -6 105 -6 134 l0 52 44 0 44 0 7
-136z"/>
<path d="M1700 2428 c-1 -2 -3 -72 -6 -155 l-5 -153 123 3 123 2 3 93 c3 90 2
92 -20 93 l-23 0 23 9 c19 8 22 17 22 60 l0 50 -120 0 c-66 0 -120 -1 -120 -2z
m102 -155 c2 -76 3 -139 2 -141 -1 -2 -23 0 -48 3 l-46 7 0 134 0 134 44 0 44
0 4 -137z"/>
<path d="M2080 2275 l0 -155 63 1 62 2 -51 9 -51 10 -7 124 c-4 69 -4 129 -1
134 3 6 26 10 51 10 l44 0 0 -137 c0 -93 3 -133 10 -123 8 12 10 11 10 -7 0
-21 5 -23 54 -23 52 0 54 1 60 31 3 17 6 60 6 95 0 59 -2 64 -22 65 -16 0 -18
2 -8 6 23 9 30 24 30 71 l0 42 -125 0 -125 0 0 -155z"/>
<path d="M449 2283 l-86 -4 -6 -97 c-4 -53 -7 -139 -7 -189 l0 -93 154 0 c131
0 155 2 160 16 3 9 6 96 6 195 l0 179 -67 -2 c-38 -1 -107 -4 -154 -5z m41
-140 c0 -49 3 -112 6 -140 l7 -53 -34 0 c-19 0 -39 4 -46 8 -8 5 -15 55 -19
140 l-7 132 47 0 46 0 0 -87z"/>
<path d="M765 2098 l5 -193 157 -3 156 -3 -7 188 c-4 103 -8 188 -9 189 -1 1
-71 5 -155 8 l-152 8 5 -194z m294 90 c0 -46 -3 -77 -6 -70 -2 6 -11 12 -19
12 -8 0 -14 5 -14 10 0 6 -18 10 -40 10 l-40 0 0 40 c0 40 0 40 39 40 38 0 39
0 47 -47 l7 -48 8 40 c16 80 23 75 -114 75 l-124 0 -7 -151 c-3 -82 -5 -153
-2 -157 2 -4 31 -5 63 -2 l58 5 6 60 6 60 1 -68 2 -67 43 6 c64 9 66 10 70 56
3 38 4 36 5 -14 l2 -58 -135 0 -135 0 2 168 3 167 55 6 c30 3 92 6 138 7 l82
2 -1 -82z m-159 -30 c0 -40 3 -104 7 -141 l6 -68 -49 3 -49 3 -3 138 -4 137
46 0 46 0 0 -72z"/>
<path d="M3080 2280 l-85 -6 80 -3 c44 -1 100 -6 125 -10 35 -7 16 -9 -81 -10
l-126 -1 -7 -150 c-4 -82 -5 -153 -2 -158 2 -4 32 -5 65 -2 34 3 65 2 69 -2 4
-4 30 -4 57 0 l50 7 6 55 6 55 2 -45 c0 -25 4 -55 7 -66 5 -19 0 -22 -56 -28
-34 -4 -97 -4 -141 0 l-79 7 -2 171 c-1 131 -3 156 -8 106 -4 -36 -8 -118 -9
-182 l-1 -118 154 0 154 0 7 123 c4 67 5 154 3 192 l-3 70 -50 1 c-27 0 -88
-2 -135 -6z m10 -137 c0 -49 3 -112 7 -141 l6 -53 -49 3 -49 3 -3 138 -3 137
46 0 45 0 0 -87z"/>
<path d="M3490 2280 l-85 -6 80 -3 c44 -1 100 -6 125 -10 l45 -8 -65 -3 c-36
-1 -92 -1 -126 0 l-61 1 -7 -150 c-4 -83 -5 -154 -2 -159 2 -4 32 -5 65 -2 34
3 65 2 69 -2 4 -4 30 -4 57 0 l50 7 6 60 6 60 1 -57 c1 -31 4 -63 8 -71 7 -20
-92 -30 -197 -21 l-79 7 -1 161 c-1 120 -4 147 -9 106 -5 -30 -8 -108 -9 -172
l-1 -118 154 0 154 0 7 153 c4 83 5 170 3 192 l-3 40 -50 1 c-27 0 -88 -2
-135 -6z m10 -144 c0 -51 3 -114 6 -140 l7 -47 -49 3 -49 3 -3 138 -3 137 46
0 45 0 0 -94z"/>
<path d="M1380 1970 c0 -6 37 -10 90 -10 134 0 109 -14 -33 -18 -67 -2 -123
-5 -123 -5 -1 -1 -5 -71 -8 -154 l-7 -153 56 0 c35 0 54 4 50 10 -3 6 -24 10
-46 10 l-39 0 0 138 0 137 43 -3 44 -4 6 -134 c3 -74 9 -139 12 -144 8 -13
105 -13 105 0 0 6 -15 10 -34 10 -30 0 -34 4 -40 31 -3 17 -6 51 -6 75 l0 44
40 0 40 0 1 -52 c1 -29 5 -66 9 -83 7 -27 8 -25 10 20 2 45 3 47 10 20 4 -16
8 -45 9 -62 l1 -33 -140 0 -140 0 -2 168 c-1 133 -3 153 -8 97 -4 -38 -8 -116
-9 -172 l-1 -103 154 0 153 0 7 61 c3 34 6 120 6 190 l0 129 -105 0 c-63 0
-105 -4 -105 -10z"/>
<path d="M1765 1970 c3 -5 46 -10 96 -10 l89 0 0 -175 0 -175 -135 0 -135 0 0
135 c0 83 -4 135 -10 135 -6 0 -10 -53 -10 -140 l0 -140 154 0 153 0 5 171 c3
93 4 179 1 190 -5 17 -15 19 -110 19 -67 0 -102 -4 -98 -10z"/>
<path d="M2155 1970 c3 -5 46 -10 96 -10 l89 0 0 -175 0 -175 -135 0 -135 0
-1 103 c-1 56 -5 134 -9 172 -5 54 -7 30 -8 -107 l-2 -178 155 0 155 0 0 190
0 190 -106 0 c-67 0 -103 -4 -99 -10z"/>
<path d="M2540 1970 c0 -6 37 -10 90 -10 50 0 90 -3 90 -8 0 -4 -12 -7 -27 -8
-16 0 -72 -1 -125 -2 l-98 -2 -1 -122 c-1 -96 -3 -113 -10 -78 -4 25 -9 81
-10 125 -2 71 -3 65 -11 -59 -5 -76 -7 -154 -3 -173 l6 -34 152 3 152 3 3 188
2 187 -105 0 c-63 0 -105 -4 -105 -10z m36 -192 c6 -102 10 -131 15 -103 l6
40 2 -42 1 -43 45 0 c25 0 45 5 45 10 0 6 -15 10 -34 10 -33 0 -33 1 -40 53
-11 96 -11 97 33 97 l39 0 7 -81 c4 -44 9 -78 12 -76 2 3 8 42 12 88 l8 84 2
-102 1 -103 -140 0 -141 0 7 38 c9 48 14 53 14 14 0 -32 0 -32 51 -32 31 0 48
4 44 10 -3 6 -21 10 -39 10 l-33 0 -6 83 c-4 45 -7 106 -7 135 l0 52 44 0 44
0 8 -142z"/>
<path d="M1795 1943 l-100 -4 -3 -154 -3 -155 51 0 c27 0 50 5 50 10 0 6 -18
10 -40 10 l-40 0 0 135 0 135 45 0 45 0 1 -117 c1 -164 3 -167 67 -171 32 -2
52 1 52 7 0 6 -18 11 -40 11 l-40 0 0 75 0 75 40 0 40 0 0 -62 c0 -35 5 -70
10 -78 6 -10 9 36 9 138 0 151 0 152 -22 150 -12 -1 -67 -4 -122 -5z"/>
<path d="M2183 1943 l-103 -4 0 -154 0 -155 50 0 c28 0 50 5 50 10 0 6 -17 10
-39 10 l-38 0 -7 125 c-4 69 -4 130 -1 135 3 6 26 10 51 10 l44 0 1 -142 c0
-89 4 -135 9 -123 8 19 9 19 9 -2 1 -21 6 -23 51 -23 45 0 52 3 60 25 5 14 9
86 9 160 -1 132 -2 135 -23 133 -11 -1 -67 -4 -123 -5z"/>
<path d="M429 1793 l-66 -4 -6 -97 c-4 -53 -7 -139 -7 -189 l0 -93 154 0 c131
0 155 2 160 16 3 9 6 96 6 195 l0 179 -87 -2 c-49 -1 -118 -3 -154 -5z m61
-140 c0 -49 3 -112 7 -142 l6 -53 -44 7 c-24 4 -45 8 -46 9 -1 1 -5 61 -9 134
l-7 132 47 0 46 0 0 -87z"/>
<path d="M839 1793 l-66 -4 -7 -91 c-3 -50 -6 -135 -6 -190 l0 -98 154 0 c151
0 154 0 160 23 3 12 6 100 6 195 l0 172 -87 -2 c-49 -1 -118 -3 -154 -5z m64
-190 c4 -75 4 -139 2 -141 -2 -3 -24 -1 -47 2 l-43 7 -3 134 -3 135 44 0 44 0
6 -137z"/>
<path d="M3065 1790 c-50 -6 -41 -7 58 -8 70 -1 117 -6 117 -12 0 -6 -48 -10
-125 -10 l-125 0 0 -48 c0 -27 -3 -97 -7 -155 l-6 -107 124 3 124 2 6 55 c4
42 6 46 7 19 1 -20 5 -51 8 -68 l7 -31 -142 0 -141 0 -1 173 c-2 162 -2 167
-11 87 -5 -47 -7 -128 -6 -180 l3 -95 151 0 151 0 7 89 c3 49 6 136 6 193 l0
103 -72 -2 c-40 -1 -100 -4 -133 -8z m28 -187 c2 -76 3 -140 1 -142 -2 -2 -24
0 -49 3 l-45 7 0 135 0 134 44 0 43 0 6 -137z"/>
<path d="M3475 1790 c-50 -6 -41 -7 58 -8 70 -1 117 -6 117 -12 0 -6 -48 -10
-125 -10 l-125 0 0 -42 c0 -24 -3 -94 -7 -155 l-6 -113 124 3 124 2 6 60 6 60
1 -50 c1 -27 5 -60 8 -72 l6 -23 -141 0 -141 0 -1 163 c-1 117 -4 148 -9 112
-5 -27 -9 -104 -9 -171 l-1 -121 154 1 153 1 7 110 c3 61 6 147 6 193 l0 82
-72 -2 c-40 -1 -100 -4 -133 -8z m27 -187 c3 -76 4 -140 2 -142 -2 -2 -24 0
-49 3 l-45 7 0 135 0 134 44 0 43 0 5 -137z"/>
<path d="M415 1299 c22 -4 83 -9 135 -10 94 -2 95 -2 35 -10 -33 -4 -68 -5
-78 -3 -10 3 -40 3 -68 -1 l-49 -7 0 -83 c0 -46 -4 -87 -10 -90 -6 -4 -10 33
-11 102 l-2 108 -8 -95 c-5 -52 -8 -137 -7 -189 l3 -94 150 2 c82 1 153 5 157
7 4 3 8 88 8 190 l0 184 -147 -1 c-106 -1 -137 -4 -108 -10z m75 -138 c0 -48
3 -109 6 -135 l7 -46 -45 0 -45 0 -6 83 c-4 45 -7 106 -7 135 l0 52 45 0 45 0
0 -89z"/>
<path d="M825 1299 c22 -4 82 -8 133 -8 111 -1 124 -15 14 -18 -42 0 -98 -2
-124 -2 l-48 -1 0 -87 c0 -49 -5 -95 -10 -103 -7 -10 -10 23 -11 105 l-2 120
-9 -90 c-4 -49 -7 -135 -6 -189 l3 -99 150 2 c102 2 152 6 157 14 4 7 8 92 8
190 l0 177 -147 -1 c-106 -1 -137 -4 -108 -10z m46 -49 c29 0 29 0 29 -63 0
-35 3 -100 8 -143 l7 -79 6 65 6 65 1 -67 2 -68 45 0 c25 0 45 5 45 10 0 6
-15 10 -34 10 -31 0 -34 3 -40 38 -3 20 -6 54 -6 75 0 37 0 37 40 37 l40 0 1
-42 c0 -24 4 -61 8 -83 l9 -40 1 44 c1 57 7 50 14 -17 l6 -53 -137 3 -137 3
-2 30 c-1 20 0 23 4 8 4 -20 11 -23 53 -23 27 0 52 5 55 10 4 6 -11 10 -37 10
l-43 0 -3 141 c-3 129 -2 141 13 135 9 -3 30 -6 46 -6z"/>
<path d="M3055 1300 c11 -5 57 -9 103 -9 127 -1 97 -16 -40 -19 -67 -1 -123
-4 -124 -5 -1 -1 -5 -71 -9 -154 l-7 -153 50 0 c28 0 54 5 57 10 4 6 -12 10
-39 10 l-46 0 0 141 c0 125 2 140 16 135 9 -3 29 -6 45 -6 l29 0 1 -97 c0 -54
4 -118 7 -143 l7 -45 53 -3 c31 -2 52 1 52 7 0 6 -15 11 -34 11 -39 0 -46 14
-46 98 l0 52 40 0 40 0 1 -57 c1 -85 17 -125 18 -49 1 76 7 69 14 -16 l6 -68
-139 0 -140 0 -2 173 c-1 131 -3 157 -8 107 -4 -36 -8 -116 -9 -177 l-1 -113
154 0 153 0 7 92 c3 50 6 135 6 190 l0 98 -117 -1 c-75 0 -111 -4 -98 -9z"/>
<path d="M3465 1300 c11 -5 57 -9 103 -9 127 -1 97 -16 -40 -19 -67 -1 -123
-4 -124 -5 -1 -1 -5 -71 -9 -154 l-7 -153 50 0 c28 0 54 5 57 10 4 6 -12 10
-39 10 l-46 0 0 141 c0 125 2 140 16 135 9 -3 29 -6 45 -6 l29 0 1 -97 c0 -54
4 -118 7 -143 l7 -45 53 -3 c31 -2 52 1 52 7 0 6 -15 11 -34 11 -39 0 -46 14
-46 98 l0 52 40 0 40 0 1 -57 c2 -89 17 -123 19 -43 2 78 7 70 13 -22 l5 -68
-139 0 -139 0 -1 163 c-1 117 -4 148 -9 112 -5 -27 -9 -103 -9 -167 l-1 -118
153 0 154 0 6 107 c4 58 7 144 7 190 l0 83 -117 -1 c-75 0 -111 -4 -98 -9z"/>
</g>
</svg>
